#!OML:ASF G:\JayActor3\Patient Classification 1\Patient 1\Session 6\male.ASF
:FULLY-SPECIFIED
:DEGREES
299
root 46.4628 15.7957 7.37533 -182.694 -13.8988 -170.702
lowerback 1.37824 0.968867 9.46674
upperback -0.77638 1.41669 1.06007
thorax -1.37734 0.584871 -4.23675
lowerneck 6.32151 8.47175 5.06373
upperneck -13.5323 11.8316 0.87635
head -4.87132 5.31796 -1.20929
rclavicle -3.83033e-014 3.97569e-015
rhumerus -31.423 17.0267 -92.473
rradius 40.1987
rwrist -9.17652
rhand -16.0541 -8.86991
rfingers 7.12502
rthumb 10.148 -38.6052
lclavicle -3.83033e-014 3.97569e-015
lhumerus -19.9286 -27.6884 90.3124
lradius 59.4072
lwrist 55.8436
lhand -12.667 19.5632
lfingers 7.12502
lthumb 13.4142 49.1113
rfemur -0.633811 -1.18667 37.2484
rtibia 24.5176
rfoot -24.4572 -7.38489
rtoes -3.41054
lfemur -29.6312 2.16738 -9.89649
ltibia 66.6564
lfoot -13.2959 -1.1051
ltoes -20.2052
300
root 46.4164 15.7735 7.19136 -182.675 -13.6813 -170.587
lowerback 1.41328 1.04058 9.68435
upperback -0.796875 1.51942 1.05545
thorax -1.39857 0.631138 -4.36553
lowerneck 6.26147 8.44917 5.0383
upperneck -13.488 11.7916 0.860438
head -4.8487 5.3039 -1.204
rclavicle -3.38679e-014 -1.35174e-014
rhumerus -30.9968 17.7413 -92.5236
rradius 40.7795
rwrist -9.48287
rhand -15.8758 -8.92242
rfingers 7.12502
rthumb 10.32 -38.6492
lclavicle -3.38679e-014 -1.35174e-014
lhumerus -20.0544 -27.7381 89.9739
lradius 59.8332
lwrist 55.9407
lhand -12.6102 19.6254
lfingers 7.12502
lthumb 13.469 49.1699
rfemur 0.338304 -1.23369 37.3778
rtibia 24.0398
rfoot -24.5604 -7.45664
rtoes -3.10574
lfemur -30.6528 1.95067 -10.0821
ltibia 64.9186
lfoot -13.9522 -0.663678
ltoes -20.8426
301
root 46.3696 15.7542 7.00464 -182.653 -13.4558 -170.459
lowerback 1.43791 1.11492 9.91935
upperback -0.816109 1.62439 1.05648
thorax -1.41126 0.678473 -4.49789
lowerneck 6.19851 8.4334 5.00174
upperneck -13.463 11.7596 0.847611
head -4.83227 5.29295 -1.19699
rclavicle 7.3923e-015 -1.19271e-014
rhumerus -30.5677 18.4504 -92.5425
rradius 41.3914
rwrist -9.7879
rhand -15.6649 -8.98293
rfingers 7.12502
rthumb 10.5234 -38.6995
lclavicle 7.3923e-015 -1.19271e-014
lhumerus -20.1676 -27.8177 89.6156
lradius 60.2697
lwrist 56.0158
lhand -12.5556 19.6972
lfingers 7.12502
lthumb 13.5216 49.2382
rfemur 1.38515 -1.33586 37.5012
rtibia 23.4219
rfoot -24.5506 -7.55934
rtoes -3.06199
lfemur -31.553 1.85486 -10.2641
ltibia 62.9679
lfoot -14.483 -0.34032
ltoes -20.8814
302
root 46.322 15.7366 6.81508 -182.627 -13.2156 -170.323
lowerback 1.45032 1.19643 10.1678
upperback -0.835278 1.73742 1.06076
thorax -1.41468 0.729879 -4.63414
lowerneck 6.13926 8.42084 4.95601
upperneck -13.4595 11.7318 0.838375
head -4.82373 5.28296 -1.18859
rclavicle 7.77745e-015 1.82882e-014
rhumerus -30.1389 19.1466 -92.5305
rradius 42.0301
rwrist -10.1035
rhand -15.4401 -9.04759
rfingers 7.12502
rthumb 10.7402 -38.753
lclavicle 7.77745e-015 1.82882e-014
lhumerus -20.2731 -27.9421 89.2389
lradius 60.7233
lwrist 56.0743
lhand -12.5207 19.7915
lfingers 7.12502
lthumb 13.5552 49.3303
rfemur 2.50749 -1.52944 37.5984
rtibia 22.6672
rfoot -24.4312 -7.59552
rtoes -3.09333
lfemur -32.3339 1.91639 -10.4628
ltibia 60.8264
lfoot -14.9104 -0.154664
ltoes -20.4767
303
root 46.2732 15.7207 6.62276 -182.586 -12.9557 -170.166
lowerback 1.43673 1.28738 10.4443
upperback -0.857761 1.8599 1.06949
thorax -1.40381 0.785912 -4.78069
lowerneck 6.08776 8.4101 4.91505
upperneck -13.4733 11.7067 0.822059
head -4.82104 5.27358 -1.18402
rclavicle 1.6524e-014 3.4191e-014
rhumerus -29.7163 19.8398 -92.4957
rradius 42.6958
rwrist -10.4427
rhand -15.223 -9.12199
rfingers 7.12502
rthumb 10.9497 -38.8165
lclavicle 1.6524e-014 3.4191e-014
lhumerus -20.3779 -28.1006 88.8399
lradius 61.2034
lwrist 56.1197
lhand -12.4962 19.9094
lfingers 7.12502
lthumb 13.5788 49.4466
rfemur 3.68577 -1.83749 37.6739
rtibia 21.7851
rfoot -24.1863 -7.51999
rtoes -3.04345
lfemur -33.0178 2.14323 -10.6718
ltibia 58.5203
lfoot -15.2278 -0.161742
ltoes -19.5888
